# xmcd
#
# Track frame offsets:
#	150
#	15283
#	28013
#	43648
#	57743
#	76053
#	89020
#	102543
#	114383
#	126563
#	141643
#	159220
#	174633
#	188658
#
# Disc length: 2743 seconds
#
# Revision: 1
# Processed by: cddbd v1.5.2PL0 Copyright (c) Steve Scherf et al.
# Submitted via: audiograbber 1.83.01
#
DISCID=be0ab50e
DTITLE=Tarja Lunnas - Soita Kun Tunnet Niin
DYEAR=1993
DGENRE=Pop
TTITLE0=Soita Kun Tunnet Niin
TTITLE1=Katseen Kosketus
TTITLE2=Nouse Kuu Jo Kertomaan
TTITLE3=Jos Annat Pikkusormen
TTITLE4=Ilman Sua
TTITLE5=Paas Luusi Liikkumaan
TTITLE6=Naurus Sun Ja Katseesi Sun
TTITLE7=Kes‰poika
TTITLE8=Se On Tosi Mukavaa
TTITLE9=Maailmain
TTITLE10=Santa Maria
TTITLE11=Jaksa T‰llaista En
TTITLE12=Haaveiden Maa
TTITLE13=T‰‰ Tie
EXTD=TR.
EXTT0=
EXTT1=
EXTT2=
EXTT3=
EXTT4=
EXTT5=
EXTT6=
EXTT7=
EXTT8=
EXTT9=
EXTT10=
EXTT11=
EXTT12=
EXTT13=
PLAYORDER=
